# This file uses centimeters as units for non-parametric coordinates.

mtllib blocker_wooden_planks.mtl
g default
v -9.346951 2.871452 1.317079
v 10.543812 11.949954 0.607698
v -10.518869 5.436677 1.286157
v 9.371894 14.515179 0.576775
v -10.543812 5.413234 0.286743
v 9.346951 14.491737 -0.422639
v -9.371894 2.848009 0.317665
v 10.518869 11.926511 -0.391717
vt 0.257156 0.465853
vt 0.488949 0.465839
vt 0.488947 0.697642
vt 0.257170 0.697617
vt 0.488901 0.929435
vt 0.257134 0.002285
vt 0.488934 0.234054
vt 0.257148 0.234069
vt 0.257125 0.929391
vt 0.488916 0.002271
vn 0.024943 0.023443 0.999414
vn 0.024943 0.023443 0.999414
vn 0.024943 0.023443 0.999414
vn 0.024943 0.023443 0.999414
vn -0.415513 0.909521 -0.010964
vn -0.415513 0.909521 -0.010964
vn -0.415513 0.909521 -0.010964
vn -0.415513 0.909521 -0.010964
vn -0.024943 -0.023443 -0.999414
vn -0.024943 -0.023443 -0.999414
vn -0.024943 -0.023443 -0.999414
vn -0.024943 -0.023443 -0.999414
vn 0.415513 -0.909521 0.010964
vn 0.415513 -0.909521 0.010964
vn 0.415513 -0.909521 0.010964
vn 0.415513 -0.909521 0.010964
s off
g pCube4
usemtl initialShadingGroup
f 1/1/1 2/2/2 4/3/3 3/4/4
f 3/4/5 4/3/6 6/5/7 5/9/8
f 5/6/9 6/10/10 8/7/11 7/8/12
f 7/8/13 8/7/14 2/2/15 1/1/16
g default
v 9.557315 0.325164 -0.276412
v 10.138167 3.282115 -0.276412
v -11.214613 16.151310 -0.276412
v -9.557326 18.326511 -0.276412
v -11.214613 16.151310 -1.276412
v -9.557326 18.326511 -1.276412
v 9.557315 0.325164 -1.276412
v 10.138167 3.282115 -1.276412
vt 0.002834 0.749206
vt 0.015058 0.501192
vt 0.252534 0.499346
vt 0.253050 0.748925
vt 0.253571 0.999059
vt 0.251708 0.250170
vt 0.014225 0.249941
vt 0.000357 0.002114
vt 0.250570 0.000499
vt 0.003356 0.999500
vn 0.000000 0.000000 1.000000
vn 0.000000 0.000000 1.000000
vn 0.000000 0.000000 1.000000
vn 0.000000 0.000000 1.000000
vn 0.000000 0.000000 -1.000000
vn 0.000000 0.000000 -1.000000
vn 0.000000 0.000000 -1.000000
vn 0.000000 0.000000 -1.000000
vn 0.607021 0.794686 0.000000
vn 0.607021 0.794686 0.000000
vn 0.607021 0.794686 0.000000
vn 0.607021 0.794686 0.000000
vn -0.606041 -0.795433 0.000000
vn -0.606041 -0.795433 0.000000
vn -0.606041 -0.795433 0.000000
vn -0.606041 -0.795433 0.000000
s off
g polySurface3
usemtl initialShadingGroup
f 9/11/17 10/12/18 12/13/19 11/14/20
f 13/19/21 14/16/22 16/17/23 15/18/24
f 10/12/25 16/17/26 14/16/27 12/13/28
f 15/20/29 9/11/30 11/14/31 13/15/32
g default
v -9.974203 0.683577 -0.356624
v 9.888450 0.683577 1.352940
v -9.974203 3.503989 -0.356624
v 9.888450 3.503989 1.352940
v -9.888450 3.503989 -1.352940
v 9.974203 3.503989 0.356624
v -9.888450 0.683577 -1.352940
v 9.974203 0.683577 0.356624
vt 0.493455 0.444546
vt 0.714732 0.444533
vt 0.714729 0.665819
vt 0.493468 0.665795
vt 0.714685 0.887096
vt 0.493433 0.002011
vt 0.714716 0.223265
vt 0.493447 0.223279
vt 0.493425 0.887054
vt 0.714700 0.001998
vn -0.085752 0.000000 0.996316
vn -0.085752 0.000000 0.996316
vn -0.085752 0.000000 0.996316
vn -0.085752 0.000000 0.996316
vn 0.000000 1.000000 0.000000
vn 0.000000 1.000000 0.000000
vn 0.000000 1.000000 0.000000
vn 0.000000 1.000000 0.000000
vn 0.085752 0.000000 -0.996316
vn 0.085752 0.000000 -0.996316
vn 0.085752 0.000000 -0.996316
vn 0.085752 0.000000 -0.996316
vn 0.000000 -1.000000 0.000000
vn 0.000000 -1.000000 0.000000
vn 0.000000 -1.000000 0.000000
vn 0.000000 -1.000000 0.000000
s off
g pCube3
usemtl initialShadingGroup
f 17/21/33 18/22/34 20/23/35 19/24/36
f 19/24/37 20/23/38 22/25/39 21/29/40
f 21/26/41 22/30/42 24/27/43 23/28/44
f 23/28/45 24/27/46 18/22/47 17/21/48
